<?xml version="1.0" ?><svg width="20" height="20" xmlns="http://www.w3.org/2000/svg" xmlns:xlink="http://www.w3.org/1999/xlink" version="1.1" viewBox="0 0 512 512" style="enable-background:new 0 0 512 512;" xml:space="preserve"><g id="_x31_3_Online_Tests"><g><path d="M447.629,89.44h-61.769v9.614h61.769c11.777,0,21.343,9.566,21.343,21.343v218.283H43.029V120.396    c0-11.777,9.566-21.343,21.295-21.343h61.817V89.44H64.323c-17.065,0-30.909,13.892-30.909,30.957v268.756    c0,17.016,13.844,30.909,30.909,30.909h383.305c17.065,0,30.957-13.892,30.957-30.909V120.396    C478.585,103.332,464.693,89.44,447.629,89.44z M268.135,384.188h-24.283c-2.655,0-4.807-2.152-4.807-4.807    c0-2.655,2.152-4.807,4.807-4.807h24.283c2.655,0,4.807,2.152,4.807,4.807C272.942,382.036,270.79,384.188,268.135,384.188z"/><path d="M353.557,491.54h-21.631l-19.66-61.865h-112.53l-19.66,61.865h-21.631c-2.692,0-4.807,2.115-4.807,4.807    c0,2.644,2.115,4.807,4.807,4.807h195.114c2.644,0,4.807-2.163,4.807-4.807C358.364,493.655,356.201,491.54,353.557,491.54z"/><path d="M174.747,266.878h38.723c1.373,0,2.49-1.117,2.49-2.49v-38.723c0-1.373-1.117-2.49-2.49-2.49h-38.723    c-1.371,0-2.488,1.117-2.488,2.49v38.723C172.259,265.761,173.377,266.878,174.747,266.878z M182.061,241.917    c2.091-1.636,5.112-1.27,6.748,0.824l0.969,1.237l10.384-8.452c2.061-1.681,5.084-1.366,6.762,0.692    c1.676,2.058,1.366,5.086-0.692,6.762l-14.186,11.548c-0.861,0.702-1.934,1.08-3.035,1.08c-0.178,0-0.357-0.009-0.537-0.031    c-1.282-0.143-2.453-0.798-3.248-1.814l-3.988-5.098C179.601,246.573,179.97,243.553,182.061,241.917z"/><path d="M174.747,106.149h38.723c1.373,0,2.49-1.117,2.49-2.49V64.938c0-1.373-1.117-2.49-2.49-2.49h-38.723    c-1.371,0-2.488,1.117-2.488,2.49v38.721C172.259,105.032,173.377,106.149,174.747,106.149z M182.061,81.187    c2.091-1.634,5.112-1.267,6.748,0.824l0.969,1.239l10.384-8.452c2.061-1.681,5.089-1.366,6.762,0.692    c1.676,2.061,1.366,5.086-0.692,6.762l-14.186,11.546c-0.861,0.702-1.934,1.08-3.035,1.08c-0.178,0-0.357-0.009-0.537-0.031    c-1.282-0.143-2.453-0.798-3.248-1.814l-3.988-5.098C179.601,85.844,179.97,82.823,182.061,81.187z"/><path d="M174.747,186.515h38.723c1.373,0,2.49-1.117,2.49-2.49v-38.723c0-1.373-1.117-2.49-2.49-2.49h-38.723    c-1.371,0-2.488,1.117-2.488,2.49v38.723C172.259,185.398,173.377,186.515,174.747,186.515z M182.061,161.551    c2.091-1.634,5.112-1.267,6.748,0.824l0.969,1.239l10.384-8.452c2.061-1.681,5.089-1.366,6.762,0.692    c1.676,2.061,1.366,5.086-0.692,6.762l-14.186,11.546c-0.861,0.702-1.934,1.08-3.035,1.08c-0.178,0-0.357-0.009-0.537-0.031    c-1.282-0.143-2.453-0.798-3.248-1.814l-3.988-5.098C179.601,166.207,179.97,163.187,182.061,161.551z"/><path d="M320.497,79.492h52.879l-21.07-21.25c-14.814-14.86-29.584-29.721-44.395-44.581v53.246    C307.912,73.848,313.559,79.492,320.497,79.492z"/><path d="M158.443,309.838h195.114c12.498,0,22.689-10.191,22.689-22.689V89.106h-55.748c-10.751,0-19.729-7.684-21.759-17.845    h-50.275c-2.655,0-4.807-2.152-4.807-4.807c0-2.655,2.152-4.807,4.807-4.807h49.834V10.846H158.443    c-12.498,0-22.689,10.143-22.689,22.641v253.662C135.755,299.647,145.945,309.838,158.443,309.838z M334.139,267.266h-68.851    c-2.655,0-4.807-2.152-4.807-4.807c0-2.655,2.152-4.807,4.807-4.807h68.851c2.657,0,4.807,2.152,4.807,4.807    C338.946,265.113,336.796,267.266,334.139,267.266z M257.432,97.335h36.707c2.657,0,4.807,2.152,4.807,4.807    s-2.15,4.807-4.807,4.807h-36.707c-2.655,0-4.807-2.152-4.807-4.807S254.778,97.335,257.432,97.335z M248.464,142.011h102.499    c2.657,0,4.807,2.152,4.807,4.807c0,2.655-2.15,4.807-4.807,4.807H248.464c-2.655,0-4.807-2.152-4.807-4.807    C243.657,144.163,245.809,142.011,248.464,142.011z M338.946,182.508c0,2.655-2.15,4.807-4.807,4.807h-68.851    c-2.655,0-4.807-2.152-4.807-4.807s2.152-4.807,4.807-4.807h68.851C336.796,177.701,338.946,179.854,338.946,182.508z     M248.464,221.961h102.499c2.657,0,4.807,2.152,4.807,4.807c0,2.655-2.15,4.807-4.807,4.807H248.464    c-2.655,0-4.807-2.152-4.807-4.807C243.657,224.114,245.809,221.961,248.464,221.961z M162.645,64.938    c0-6.675,5.429-12.104,12.102-12.104h38.723c6.675,0,12.104,5.429,12.104,12.104v38.721c0,6.675-5.429,12.104-12.104,12.104    h-38.723c-6.673,0-12.102-5.429-12.102-12.104V64.938z M162.645,145.301c0-6.675,5.429-12.104,12.102-12.104h38.723    c6.675,0,12.104,5.429,12.104,12.104v38.723c0,6.675-5.429,12.104-12.104,12.104h-38.723c-6.673,0-12.102-5.429-12.102-12.104    V145.301z M162.645,225.665c0-6.675,5.429-12.104,12.102-12.104h38.723c6.675,0,12.104,5.429,12.104,12.104v38.723    c0,6.675-5.429,12.104-12.104,12.104h-38.723c-6.673,0-12.102-5.429-12.102-12.104V225.665z"/></g></g><g id="Layer_1"/></svg>