<?xml version="1.0" ?><svg height="24" width="24" xmlns="http://www.w3.org/2000/svg">
  <g transform="translate(0 -1028.4)">
    <path d="m4 1034.4c-1.1046 0-2 0.9-2 2v10c0 1.1 0.8954 2 2 2h16c1.105 0 2-0.9 2-2v-10c0-1.1-0.895-2-2-2h-16z" fill="#95a5a6"/>
    <path d="m4 5c-1.1046 0-2 0.8954-2 2v10c0 1.105 0.8954 2 2 2h16c1.105 0 2-0.895 2-2v-10c0-1.1046-0.895-2-2-2h-16z" fill="#bdc3c7" transform="translate(0 1028.4)"/>
    <rect fill="#ecf0f1" height="10" width="7" x="4" y="1035.4"/>
    <path d="m7.3125 8a2.5 2.5 0 0 0 -2.3125 2.5 2.5 2.5 0 0 0 0.8125 1.844c-0.7184 0.297-1.3395 0.769-1.8125 1.375v2.281 1h7v-1-2.312c-0.474-0.592-1.1053-1.052-1.8125-1.344a2.5 2.5 0 0 0 0.8125 -1.844 2.5 2.5 0 0 0 -2.6875 -2.5z" fill="#2c3e50" transform="translate(0 1028.4)"/>
    <path d="m13 8v1h4v-1h-4zm0 2v1h7v-1h-7zm0 2v1h7v-1h-7z" fill="#7f8c8d" transform="translate(0 1028.4)"/>
  </g>
</svg>