<?xml version="1.0" ?><svg width="24" height="24" xmlns="http://www.w3.org/2000/svg" id="Layer_2" viewBox="0 0 32 32"><defs><style>.cls-1{fill:none;}.cls-1,.cls-2{stroke-width:0px;}</style></defs><g id="icons"><g id="Person"><g id="User"><path class="cls-2" d="m16,4c2.76,0,5,2.24,5,5s-2.24,5-5,5-5-2.24-5-5c0-2.76,2.24-5,5-5m0-2c-3.87,0-7,3.13-7,7s3.13,7,7,7,7-3.13,7-7-3.13-7-7-7Z"/><path class="cls-2" d="m26,30h-2v-5c0-2.76-2.24-5-5-5h-6c-2.76,0-5,2.24-5,5v5h-2v-5c0-3.86,3.14-7,7-7h6c3.86,0,7,3.14,7,7v5Z"/><rect id="_Transparent_Rectangle_" class="cls-1" width="32" height="32"/></g></g></g></svg>