<?xml version="1.0" ?><svg height="24px" version="1.1" viewBox="0 0 48 48" width="24px" xmlns="http://www.w3.org/2000/svg" xmlns:xlink="http://www.w3.org/1999/xlink"><title/><desc/><g fill="none" fill-rule="evenodd" id="Page-1" stroke="none" stroke-width="1"><g id="Artboard-Copy" transform="translate(-167.000000, -129.000000)"><path d="M178.001,149.9995 C176.896,149.9995 176,150.8955 176,152.0005 L176,165.9995 C176,167.1045 176.896,168.0005 178.001,168.0005 L182.001,168.0005 C183.104,168.0005 184,167.1045 184,165.9995 L184,152.0005 C184,150.8955 183.104,149.9995 182.001,149.9995 L178.001,149.9995 Z M200,133.9995 C198.895,133.9995 198.001,134.8955 198.001,136.0005 L198.001,165.9995 C198.001,167.1045 198.895,168.0005 200,168.0005 L204,168.0005 C205.105,168.0005 205.999,167.1045 205.999,165.9995 L205.999,136.0005 C205.999,134.8955 205.105,133.9995 204,133.9995 L200,133.9995 Z M189.001,141.9995 C187.895,141.9995 186.999,142.8955 186.999,144.0005 L186.999,165.9995 C186.999,167.1045 187.895,168.0005 189.001,168.0005 L193.001,168.0005 C194.105,168.0005 195,167.1045 195,165.9995 L195,144.0005 C195,142.8955 194.105,141.9995 193.001,141.9995 L189.001,141.9995 Z" fill="#000000" id="chart3"/><g id="slices" transform="translate(47.000000, 9.000000)"/></g></g></svg>